<svg id="e11ojufz3vfqn1" xmlns="http://www.w3.org/2000/svg" xmlns:xlink="http://www.w3.org/1999/xlink" viewBox="0 0 789.488200 409.001270" shape-rendering="geometricPrecision" text-rendering="geometricPrecision"><style><![CDATA[#e11ojufz3vfqn30_to {animation: e11ojufz3vfqn30_to__to 3000ms linear infinite normal forwards}@keyframes e11ojufz3vfqn30_to__to { 0% {transform: translate(3.575309px,-4.570961px)} 3.333333% {transform: translate(25.535402px,16.265609px)} 6.666667% {transform: translate(48.026970px,40.323384px)} 10% {transform: translate(57.929200px,73.659446px)} 13.333333% {transform: translate(57.929200px,91.447064px)} 16.666667% {transform: translate(48.026970px,107.886060px)} 20% {transform: translate(20.246325px,121.160641px)} 23.333333% {transform: translate(-10.714944px,124.082959px)} 26.666667% {transform: translate(-42.557921px,121.160641px)} 30% {transform: translate(-70.012681px,114.890989px)} 33.333333% {transform: translate(-101.826010px,104.963742px)} 36.666667% {transform: translate(-132.683260px,93.684806px)} 46.666667% {transform: translate(-198.286391px,57.479849px)} 50% {transform: translate(-230.680190px,30.091999px)} 53.333333% {transform: translate(-247.054789px,16.265609px)} 56.666667% {transform: translate(-270.626032px,-17.288883px)} 60% {transform: translate(-280.032120px,-53.460997px)} 63.333333% {transform: translate(-247.257705px,-83.633043px)} 66.666667% {transform: translate(-209.027076px,-89.570553px)} 70% {transform: translate(-184.974842px,-87.939230px)} 73.333333% {transform: translate(-160.699807px,-83.633043px)} 80% {transform: translate(-118.022909px,-71.742331px)} 83.333333% {transform: translate(-96.384090px,-62.770090px)} 86.666667% {transform: translate(-74.460940px,-53.460997px)} 96.666667% {transform: translate(-17.068919px,-19.193269px)} 100% {transform: translate(0px,0px)} }#e11ojufz3vfqn30_ts {animation: e11ojufz3vfqn30_ts__ts 3000ms linear infinite normal forwards}@keyframes e11ojufz3vfqn30_ts__ts { 0% {transform: scale(1,1)} 100% {transform: scale(1,1)} }#e11ojufz3vfqn33_to {animation: e11ojufz3vfqn33_to__to 3000ms linear infinite normal forwards}@keyframes e11ojufz3vfqn33_to__to { 0% {transform: translate(2.802598px,6.033423px)} 3.333333% {transform: translate(12.332935px,30.626050px)} 6.666667% {transform: translate(24.962101px,57.543342px)} 13.333333% {transform: translate(67.442827px,90.483480px)} 16.666667% {transform: translate(107.403315px,118.591623px)} 23.333333% {transform: translate(192.149541px,160.889860px)} 30% {transform: translate(271.772298px,174.937319px)} 33.333333% {transform: translate(307.107362px,176.257165px)} 36.666667% {transform: translate(362.937046px,155.072363px)} 40% {transform: translate(368.953631px,123.652854px)} 43.333333% {transform: translate(357.714917px,92.136773px)} 46.666667% {transform: translate(336.270266px,55.908601px)} 50% {transform: translate(287.003228px,30.180620px)} 53.333333% {transform: translate(236.988022px,3.492052px)} 56.666667% {transform: translate(212.960001px,-7.924695px)} 60% {transform: translate(185.690381px,-14.501847px)} 63.333333% {transform: translate(161.576571px,-23.697092px)} 66.666667% {transform: translate(140.380718px,-31.769481px)} 73.333333% {transform: translate(94.567298px,-38.527550px)} 76.666667% {transform: translate(72.189261px,-37.022803px)} 86.666667% {transform: translate(27.891126px,-34.261138px)} 100% {transform: translate(3.795865px,-9.278064px)} }#e11ojufz3vfqn33_ts {animation: e11ojufz3vfqn33_ts__ts 3000ms linear infinite normal forwards}@keyframes e11ojufz3vfqn33_ts__ts { 0% {transform: scale(1,1)} 13.333333% {transform: scale(0.970000,0.970000)} 23.333333% {transform: scale(0.950000,0.950000)} 33.333333% {transform: scale(0.920000,0.920000)} 43.333333% {transform: scale(0.880000,0.880000)} 46.666667% {transform: scale(0.850000,0.850000)} 50% {transform: scale(0.900000,0.900000)} 53.333333% {transform: scale(0.910000,0.910000)} 56.666667% {transform: scale(0.920000,0.920000)} 60% {transform: scale(0.930000,0.930000)} 100% {transform: scale(1,1)} }]]></style><path id="e11ojufz3vfqn2" d="M742.344460,379.356540C728.447860,405.232760,-1.104255,403.060540,0.001255,379.354540C13.897665,353.479860,743.449760,355.652100,742.344460,379.356540Z" fill="rgb(208,205,225)" stroke="none" stroke-width="1"/><polygon id="e11ojufz3vfqn3" points="498.277000,599.624000 526.405000,588.042000 514.823000,564.050000 490.004000,562.396000" transform="matrix(1 0 0 1 -249.16668701171875 -214.43525695800781)" fill="rgb(255,185,185)" stroke="none" stroke-width="1"/><polygon id="e11ojufz3vfqn4" points="651.329000,463.946000 585.971000,542.540000 593.417000,554.122000 672.839000,500.348000 726.613000,570.669000 777.906000,545.022000 742.332000,494.556000 684.421000,438.300000" transform="matrix(1 0 0 1 -249.16668701171875 -214.43525695800781)" fill="rgb(47,46,65)" stroke="none" stroke-width="1"/><polygon id="e11ojufz3vfqn5" points="651.329000,463.946000 585.971000,542.540000 593.417000,554.122000 672.839000,500.348000 726.613000,570.669000 777.906000,545.022000 742.332000,494.556000 684.421000,438.300000" transform="matrix(1 0 0 1 -249.16668701171875 -214.43525695800781)" opacity="0.1" fill="rgb(0,0,0)" stroke="none" stroke-width="1"/><path id="e11ojufz3vfqn6" d="M498.129480,317.349990L490.683720,323.141140L430.290340,302.458470L416.226130,296.667330L388.097760,302.458430C388.097760,302.458430,388.097760,279.293850,414.571570,280.121160L441.872690,286.739610L474.137690,289.221530Z" fill="rgb(255,185,185)" stroke="none" stroke-width="1"/><polygon id="e11ojufz3vfqn7" points="761.360000,604.588000 661.256000,567.359000 514.823000,593.833000 510.686000,562.396000 644.710000,503.657000 762.188000,542.540000 801.071000,593.006000 782.870000,604.588000" transform="matrix(1 0 0 1 -249.16668701171875 -214.43525695800781)" fill="rgb(47,46,65)" stroke="none" stroke-width="1"/><path id="e11ojufz3vfqn8" d="M434.426880,231.310070L422.017280,233.791990L419.313040,230.637050C414.935917,225.530405,414.045548,218.297830,417.053440,212.282050L417.053440,212.282050L451.800310,166.780200C451.800310,166.780200,461.727990,144.442920,477.446810,153.543290C493.165630,162.643660,464.209910,177.535180,464.209910,177.535180L446.836470,204.836300L448.491090,218.900510Z" fill="rgb(255,185,185)" stroke="none" stroke-width="1"/><circle id="e11ojufz3vfqn9" r="32.265000" transform="matrix(1 0 0 1 513.02099999999996 145.27000000000001)" fill="rgb(255,185,185)" stroke="none" stroke-width="1"/><path id="e11ojufz3vfqn10" d="M498.543130,168.848430L513.434650,204.422610L549.008830,189.531100C549.008830,189.531100,537.426540,161.402670,537.426540,160.575370C537.426540,159.748070,498.543130,168.848430,498.543130,168.848430Z" fill="rgb(255,185,185)" stroke="none" stroke-width="1"/><path id="e11ojufz3vfqn11" d="M596.504470,274.090060C596.504085,293.562487,593.435770,312.913268,587.412380,331.430670L584.996660,338.859920L573.414370,391.807540L561.004770,395.116760L551.904400,383.534470L533.703660,370.297570L520.466750,348.787570L509.116130,329.875350L505.575240,323.968350L493.165640,261.920350L446.009170,235.446550L430.290340,232.964630L433.599570,223.864260L447.663760,204.836270L461.727970,203.181650L465.864500,199.872430L469.173730,201.527040L482.410630,194.081280L486.547170,195.735890L510.737600,197.986140L525.430600,194.908590L546.559990,183.566200L555.213640,184.980910L584.996640,209.800100C592.610422,230.379261,596.506930,252.147600,596.504470,274.090060Z" fill="rgb(0,72,205)" stroke="none" stroke-width="1"/><path id="e11ojufz3vfqn12" d="M248.455680,362.425340C248.455680,362.425340,255.865630,349.866670,252.735830,348.400470C249.606030,346.934270,236.314260,341.089220,236.314260,341.089220L216.822110,334.629510C216.822110,334.629510,188.696110,292.828510,188.078750,329.179260C187.461390,365.530010,208.557910,374.267990,208.557910,374.267990C208.557910,374.267990,227.373470,414.760680,238.031660,408.303680C248.689850,401.846680,259.354980,379.927820,259.354980,379.927820C259.354980,379.927820,240.134970,369.595700,248.455680,362.425340Z" fill="rgb(47,46,65)" stroke="none" stroke-width="1"/><polygon id="e11ojufz3vfqn13" points="758.283000,544.311000 754.742000,538.404000 744.814000,488.765000 747.296000,488.765000 772.943000,441.609000 836.645000,481.320000 805.208000,502.002000" transform="matrix(1 0 0 1 -249.16668701171875 -214.43525695800781)" opacity="0.1" fill="rgb(0,0,0)" stroke="none" stroke-width="1"/><polygon id="e11ojufz3vfqn14" points="738.196000,483.801000 732.405000,500.348000 719.168000,503.657000 754.742000,542.540000 805.208000,497.038000 836.645000,476.356000 772.943000,436.645000 747.296000,483.801000" transform="matrix(1 0 0 1 -249.16668701171875 -214.43525695800781)" fill="rgb(0,72,205)" stroke="none" stroke-width="1"/><path id="e11ojufz3vfqn15" d="M487.925440,121.279810L484.429630,122.624810C483.343408,121.889361,482.598999,120.747586,482.364283,119.456977C482.129567,118.166368,482.424310,116.835608,483.182040,115.764810L476.721830,115.462500C485.110445,104.290148,497.886718,97.250697,511.812607,96.128238C525.738496,95.005779,539.477299,99.908054,549.547030,109.592620C549.841140,108.579620,553.047400,110.550490,554.356410,112.548880C554.796240,110.900500,557.802510,118.868820,558.865800,124.501350C559.358080,122.625950,561.250860,125.653520,559.592620,128.558620C560.643270,128.405110,561.117860,131.093240,560.304500,132.590820C561.453900,132.050820,561.260190,135.259660,560.013930,137.404080C561.654100,137.258350,547.078490,159.879820,541.177070,173.100080C539.463490,165.226650,537.536790,156.935780,532.011340,151.070910C531.072140,150.074020,530.043650,149.166040,529.016830,148.259660L523.463140,143.357380C517.005250,137.656960,511.130680,130.621480,502.527650,128.490980C496.615420,127.026850,492.877140,126.696280,496.099140,120.034170C493.188140,121.248940,490.469740,123.055460,487.532640,124.183740C487.572040,123.252870,487.982570,122.211200,487.925440,121.279810Z" fill="rgb(47,46,65)" stroke="none" stroke-width="1"/><circle id="e11ojufz3vfqn16" r="5.791150" transform="matrix(1 0 0 1 529.15300000000002 148.99299999999999)" fill="rgb(255,185,185)" stroke="none" stroke-width="1"/><g id="e11ojufz3vfqn17" transform="matrix(0.61236995458603 0 0 0.61236995458603 297.85714721679688 -14.66679763793945)"><path id="e11ojufz3vfqn18" d="M274.257860,81.543425C318.196950,91.044425,366.167860,107.445990,414.493490,130.593650C449.495939,147.248242,482.988868,166.905562,514.596200,189.344890" fill="none" stroke="rgb(47,46,65)" stroke-width="1" stroke-miterlimit="10"/><path id="e11ojufz3vfqn19" d="M233.143380,74.511442C246.347070,76.134822,260.092960,78.480542,274.257860,81.543445" fill="none" stroke="rgb(47,46,65)" stroke-width="1" stroke-miterlimit="10"/><path id="e11ojufz3vfqn20" d="M103.928120,212.276860C79.534177,176.577770,71.154237,142.848930,83.687597,116.682870C97.550017,87.742155,134.656600,72.937872,184.956090,71.847492" fill="none" stroke="rgb(47,46,65)" stroke-width="1" stroke-miterlimit="10"/><path id="e11ojufz3vfqn21" d="M617.625960,292.012840C637.958630,324.743990,644.267080,355.430560,632.669960,379.641990C622.464430,400.948190,599.660760,414.592520,568.269500,420.743630" fill="none" stroke="rgb(47,46,65)" stroke-width="1" stroke-miterlimit="10"/><path id="e11ojufz3vfqn22" d="M514.596200,189.344890C534.972800,203.796331,554.233374,219.760192,572.214880,237.101340" fill="none" stroke="rgb(47,46,65)" stroke-width="1" stroke-miterlimit="10"/><path id="e11ojufz3vfqn23" d="M90.421487,30.010232C130.913390,21.311232,183.312150,22.857572,241.914970,34.409392" fill="none" stroke="rgb(47,46,65)" stroke-width="1" stroke-miterlimit="10"/><path id="e11ojufz3vfqn24" d="M679.759200,292.009100C697.886930,318.488960,709.035710,344.113520,711.949680,367.449220" fill="none" stroke="rgb(47,46,65)" stroke-width="1" stroke-miterlimit="10"/><path id="e11ojufz3vfqn25" d="M491.260220,130.814390Q518.534480,146.583850,543.159530,163.433910" fill="none" stroke="rgb(47,46,65)" stroke-width="1" stroke-miterlimit="10"/><path id="e11ojufz3vfqn26" d="M465.710180,419.289360C415.642370,411.037440,359.001130,393.099550,301.864070,365.731250C236.807440,334.569540,181.680170,296.246030,142.399070,257.514730" fill="none" stroke="rgb(47,46,65)" stroke-width="1" stroke-miterlimit="10"/><path id="e11ojufz3vfqn27" d="M262.709590,382.587260C217.917590,359.381070,177.366080,333.581420,142.397300,306.720580" fill="none" stroke="rgb(47,46,65)" stroke-width="1" stroke-miterlimit="10"/></g><path id="e11ojufz3vfqn28" d="M673.628960,362.375170C673.628960,362.375170,683.146460,282.643360,789.488160,277.645300Z" fill="rgb(87,184,148)" stroke="none" stroke-width="1"/><path id="e11ojufz3vfqn29" d="M670.636760,361.943920C670.636760,361.943920,694.647260,281.157690,603.337930,235.163070Z" fill="rgb(87,184,148)" stroke="none" stroke-width="1"/><g id="e11ojufz3vfqn30_to" transform="translate(3.575309,-4.570961)"><g id="e11ojufz3vfqn30_ts" transform="scale(1,1)"><g id="e11ojufz3vfqn30" transform="translate(0,0)"><circle id="e11ojufz3vfqn31" r="16.196900" transform="matrix(1 0 0 1 625.60199999999998 118.90100000000000)" fill="rgb(242,242,242)" stroke="none" stroke-width="0.360630"/><circle id="e11ojufz3vfqn32" r="16.196900" transform="matrix(1 0 0 1 629.40099999999995 112.30300000000000)" fill="none" stroke="rgb(47,46,65)" stroke-width="0.360630" stroke-miterlimit="10"/></g></g></g><g id="e11ojufz3vfqn33_to" transform="translate(2.802598,6.033423)"><g id="e11ojufz3vfqn33_ts" transform="scale(1,1)"><g id="e11ojufz3vfqn33" transform="translate(0,0)"><circle id="e11ojufz3vfqn34" r="24.058700" transform="matrix(1 0 0 1 351.48300000000000 71.19020000000000)" fill="rgb(0,72,205)" stroke="none" stroke-width="0.448020"/><circle id="e11ojufz3vfqn35" r="24.058700" transform="matrix(1 0 0 1 357.12700000000001 61.38850000000000)" fill="none" stroke="rgb(47,46,65)" stroke-width="0.448020" stroke-miterlimit="10"/></g></g></g></svg>