<?xml version="1.0" encoding="UTF-8" standalone="no"?>
<!-- Created with Inkscape (http://www.inkscape.org/) -->
<svg xmlns:dc="http://purl.org/dc/elements/1.1/" xmlns:cc="http://creativecommons.org/ns#" xmlns:rdf="http://www.w3.org/1999/02/22-rdf-syntax-ns#" xmlns:svg="http://www.w3.org/2000/svg" xmlns="http://www.w3.org/2000/svg" xmlns:sodipodi="http://sodipodi.sourceforge.net/DTD/sodipodi-0.dtd" xmlns:inkscape="http://www.inkscape.org/namespaces/inkscape" width="119" height="49" id="svg2" version="1.1" inkscape:version="0.48.4 r9939" sodipodi:docname="New document 1">
  <defs id="defs4"/>
  <sodipodi:namedview id="base" pagecolor="#ffffff" bordercolor="#666666" borderopacity="1.0" inkscape:pageopacity="0.0" inkscape:pageshadow="2" inkscape:zoom="2" inkscape:cx="213.4872" inkscape:cy="2.9145166" inkscape:document-units="px" inkscape:current-layer="layer1" showgrid="false" inkscape:window-width="1600" inkscape:window-height="838" inkscape:window-x="-8" inkscape:window-y="-8" inkscape:window-maximized="1"/>
  <metadata id="metadata7">
    <rdf:RDF>
      <cc:Work rdf:about="">
        <dc:format>image/svg+xml</dc:format>
        <dc:type rdf:resource="http://purl.org/dc/dcmitype/StillImage"/>
        <dc:title/>
      </cc:Work>
    </rdf:RDF>
  </metadata>
  <g inkscape:label="Layer 1" inkscape:groupmode="layer" id="layer1" transform="translate(0,-1003.3622)">
    <g style="font-size:56px;font-style:normal;font-variant:normal;font-weight:normal;font-stretch:normal;text-align:start;line-height:125%;letter-spacing:0px;word-spacing:0px;writing-mode:lr-tb;text-anchor:start;fill:#000000;fill-opacity:1;stroke:none;font-family:SolaimanLipi;-inkscape-font-specification:SolaimanLipi" id="text2985">
      <path d="m 29.372208,1014.043 0,34.6445 -1.777344,-2.4609 -0.710938,-1.6953 -0.820312,-1.5586 -0.792969,-1.3946 c -0.492208,-0.7656 -0.957051,-1.4218 -1.394531,-1.9687 -0.437519,-0.5469 -0.843118,-1.0072 -1.216797,-1.3809 -0.373716,-0.3737 -0.879574,-0.7884 -1.517578,-1.2441 -0.638037,-0.4557 -1.412776,-0.9388 -2.324219,-1.4492 -0.273451,-0.1459 -0.601576,-0.319 -0.984375,-0.5196 l -1.148437,-0.6015 -1.148438,-0.5469 -1.011719,-0.4922 c -0.692717,-0.237 -1.385425,-0.4056 -2.078125,-0.5059 -0.692715,-0.1002 -1.394537,-0.1503 -2.105468,-0.1503 l -4.2929691,-6.0977 4.0468751,-2.7617 4.210937,-2.4883 5.796875,-2.8438 2.734375,-1.1484 3.226563,-1.0664 0,-2.2695 -21.6289064,0 -3.28125,-3.3907 31.1718754,0 3.28125,3.3907 z m -3.308594,7.6562 c -1.203145,0.4011 -2.424498,0.8705 -3.664063,1.4082 -1.2396,0.5378 -2.479182,1.1622 -3.71875,1.8731 l -3.089843,1.832 -2.488282,1.6133 c 0.6927,0.2917 1.385407,0.6198 2.078125,0.9844 0.692697,0.3646 1.385405,0.7656 2.078125,1.2031 0.692695,0.4193 1.317044,0.8431 1.873047,1.2715 0.555975,0.4284 1.171208,0.9251 1.845703,1.4902 l 2.1875,2.1602 c 0.437481,0.4375 0.902325,0.9798 1.394532,1.6269 0.492167,0.6472 0.993468,1.3809 1.503906,2.2012 z" id="path2990" inkscape:connector-curvature="0"/>
      <path d="m 50.290176,1014.043 -7.464843,0 0,35.1367 -3.199219,-3.3633 0,-22.9141 0,-1.1484 0,-1.1484 c -5e-6,-0.6198 -0.04558,-1.0664 -0.136719,-1.3399 -0.164067,-0.9479 -0.437504,-1.6861 -0.820312,-2.2148 -0.510421,-0.7656 -1.244144,-1.4674 -2.201172,-2.1055 -0.957033,-0.638 -1.973308,-0.957 -3.048828,-0.957 l -0.847657,0.055 -3.445312,-3.3907 1.339844,-0.1093 1.339843,-0.082 1.011719,0 1.613281,0.2735 c 0.583333,0.036 1.111978,0.1823 1.585938,0.4375 0.473956,0.2552 0.884112,0.556 1.230469,0.9023 0.729163,0.5834 1.449214,1.6316 2.160156,3.1445 l 0.601562,1.2852 0.519532,1.4219 0.4375,1.3945 -1.09375,-7.6289 -0.246094,-4.0469 0,-1.4765 c -5e-6,-0.5833 -0.04558,-1.0937 -0.136719,-1.5313 l 1.339844,1.0664 0.273437,1.75 0.246094,1.0664 0.328125,0.7383 0.765625,0.957 0.382813,0.3829 4.101562,0 z" id="path2992" inkscape:connector-curvature="0"/>
      <path d="m 62.922989,1025.6641 c -0.546889,0.5651 -1.198582,1.0482 -1.955078,1.4492 -0.756523,0.401 -1.535819,0.6016 -2.337891,0.6015 -1.822925,10e-5 -3.554694,-0.8932 -5.195312,-2.6796 -1.531254,-1.9323 -2.296879,-3.9193 -2.296875,-5.961 -4e-6,-0.9843 0.168616,-1.8867 0.505859,-2.707 0.337236,-0.8203 0.916011,-1.5495 1.736328,-2.1875 1.367181,-1.112 2.816398,-1.6679 4.347656,-1.668 1.95051,10e-5 3.636706,0.7748 5.058594,2.3242 0.74738,0.7657 1.303369,1.6133 1.667969,2.543 0.364566,0.9297 0.546858,1.9141 0.546875,2.9531 -1.7e-5,0.5105 -0.04559,0.989 -0.136719,1.4356 -0.09116,0.4466 -0.227881,0.8887 -0.410156,1.3261 -0.127621,0.4193 -0.323584,0.8432 -0.587891,1.2715 -0.264338,0.4284 -0.578791,0.8614 -0.943359,1.2989 z m 4.101562,22.5039 -5.441406,-4.4844 -3.445312,-2.625 c -1.111989,-0.875 -2.15105,-1.6497 -3.117188,-2.3242 -0.966152,-0.6745 -1.850265,-1.2487 -2.652344,-1.7227 l 0,-7.5742 3.554688,3.0898 1.421875,1.2032 2.761719,2.6797 c 0.36457,0.3828 1.093736,1.194 2.1875,2.4336 l 4.375,5.0859 4.292968,5.1953 0,2.8711 z m -7.546875,-25.1289 c 0.473947,-0.3281 0.874988,-0.6426 1.203125,-0.9434 0.328112,-0.3008 0.592435,-0.5924 0.792969,-0.875 0.200507,-0.2825 0.355455,-0.5651 0.464844,-0.8477 0.109361,-0.2825 0.182277,-0.5787 0.21875,-0.8886 -1.4e-5,-0.3281 -0.113946,-0.6335 -0.341797,-0.916 -0.227878,-0.2826 -0.533216,-0.5287 -0.916016,-0.7383 -0.382825,-0.2096 -0.802095,-0.3691 -1.257812,-0.4785 -0.45574,-0.1094 -0.911469,-0.1641 -1.367188,-0.1641 -1.294279,0 -2.242195,0.2826 -2.84375,0.8477 -1.111985,1.039 -1.667974,2.4336 -1.667968,4.1835 -6e-6,1.6589 0.656243,2.4884 1.96875,2.4883 0.455721,10e-5 1.002595,-0.1367 1.640625,-0.4101 0.63801,-0.2734 1.339833,-0.6927 2.105468,-1.2578 z" id="path2994" inkscape:connector-curvature="0"/>
      <path d="m 105.3058,1014.043 -7.710936,0 0,34.3164 -3.5,-3.1446 0,-18.5937 c -2.6e-5,-0.4739 -0.182317,-1.0208 -0.546875,-1.6406 -0.255234,-0.6563 -0.656275,-1.194 -1.203125,-1.6133 l -0.464844,-0.3281 c -0.856793,-0.4922 -1.68622,-0.7383 -2.488281,-0.7383 -0.583354,0 -1.166687,0.4193 -1.75,1.2578 l -0.382813,1.0937 -0.05469,1.3399 0.246094,1.668 -1.394532,0.5468 -0.4375,-1.0664 -0.273437,-0.5195 c -0.601579,-1.2396 -1.203141,-2.1146 -1.804688,-2.625 -0.619806,-0.638 -1.786471,-1.1758 -3.5,-1.6133 l -1.421875,-0.2461 c -1.330738,0 -2.529304,0.4056 -3.595703,1.2168 -1.066412,0.8112 -1.80925,1.9825 -2.228515,3.5137 l -0.191407,1.4219 c -4e-6,1.2396 0.419266,2.2877 1.257813,3.1445 0.856764,0.7292 1.914055,1.2031 3.171875,1.4219 -0.6198,-0.9844 -0.929695,-1.8594 -0.929688,-2.625 -7e-6,-0.9479 0.401034,-1.7865 1.203125,-2.5157 0.802074,-0.7291 1.649729,-1.0937 2.542969,-1.0937 1.531237,0 2.697902,0.8568 3.5,2.5703 0.218735,0.6927 0.382797,1.2487 0.492188,1.668 0.109359,0.4193 0.19139,0.8659 0.246093,1.3398 l -0.136718,0.6563 c -0.401057,1.0573 -1.061864,1.8548 -1.982422,2.3925 -0.920586,0.5378 -1.982434,0.8067 -3.185547,0.8067 -0.893239,0 -1.809254,-0.1413 -2.748047,-0.4238 -0.938809,-0.2826 -1.681647,-0.5697 -2.228516,-0.8614 -1.239587,-0.7838 -2.351565,-1.914 -3.335937,-3.3906 -0.69271,-1.3489 -1.039064,-2.8984 -1.039063,-4.6484 l 0.21875,-2.2149 c 0.164061,-1.0755 0.4694,-2.0598 0.916016,-2.9531 0.446612,-0.8932 0.998044,-1.6543 1.654297,-2.2832 0.656245,-0.6289 1.362625,-1.1211 2.119141,-1.4766 0.756503,-0.3554 1.544914,-0.5331 2.365234,-0.5332 1.567698,10e-5 3.080718,0.4011 4.539062,1.2032 l 1.722657,1.4218 1.175781,1.5313 c -0.12762,-0.1823 -0.07749,-0.474 0.150391,-0.875 0.227848,-0.401 0.555972,-0.8157 0.984375,-1.2442 0.428367,-0.4283 0.91144,-0.8202 1.449218,-1.1757 0.537742,-0.3555 1.043601,-0.5788 1.517578,-0.67 1.312479,10e-5 2.351541,0.3829 3.117188,1.1485 l 1.257812,1.7226 0.601563,0.9024 1.039062,2.0508 0,-9.2422 -26.03125,0 -3.417968,-3.4453 37.023445,0 z" id="path2996" inkscape:connector-curvature="0"/>
      <path d="m 118.75893,1014.043 -7.46485,0 0,35.1367 -3.19922,-3.3633 0,-22.9141 0,-1.1484 0,-1.1484 c 0,-0.6198 -0.0456,-1.0664 -0.13671,-1.3399 -0.16407,-0.9479 -0.43751,-1.6861 -0.82032,-2.2148 -0.51042,-0.7656 -1.24414,-1.4674 -2.20117,-2.1055 -0.95703,-0.638 -1.97331,-0.957 -3.04883,-0.957 l -0.84765,0.055 -3.445316,-3.3907 1.339844,-0.1093 1.339842,-0.082 1.01172,0 1.61328,0.2735 c 0.58333,0.036 1.11198,0.1823 1.58594,0.4375 0.47396,0.2552 0.88411,0.556 1.23047,0.9023 0.72916,0.5834 1.44921,1.6316 2.16015,3.1445 l 0.60157,1.2852 0.51953,1.4219 0.4375,1.3945 -1.09375,-7.6289 -0.2461,-4.0469 0,-1.4765 c 0,-0.5833 -0.0456,-1.0937 -0.13671,-1.5313 l 1.33984,1.0664 0.27344,1.75 0.24609,1.0664 0.32813,0.7383 0.76562,0.957 0.38281,0.3829 4.10157,0 z" id="path2998" inkscape:connector-curvature="0"/>
    </g>
  </g>
</svg>